<svg xmlns="http://www.w3.org/2000/svg" viewBox="0 0 60 40" role="img" aria-label="United States">
  <rect width="60" height="40" fill="#fff"/>
  <g fill="#b22234">
    <path d="M0 0h60v3.077H0zm0 6.154h60v3.077H0zm0 6.154h60v3.077H0zm0 6.154h60v3.077H0zm0 6.153h60v3.077H0zm0 6.154h60v3.077H0zm0 6.154h60V40H0z"/>
  </g>
  <path fill="#3c3b6e" d="M0 0h26v21.54H0z"/>
  <g fill="#fff">
    <circle cx="3" cy="3" r=".8"/><circle cx="7" cy="3" r=".8"/><circle cx="11" cy="3" r=".8"/><circle cx="15" cy="3" r=".8"/><circle cx="19" cy="3" r=".8"/><circle cx="23" cy="3" r=".8"/>
    <circle cx="5" cy="6.8" r=".8"/><circle cx="9" cy="6.8" r=".8"/><circle cx="13" cy="6.8" r=".8"/><circle cx="17" cy="6.8" r=".8"/><circle cx="21" cy="6.8" r=".8"/>
    <circle cx="3" cy="10.6" r=".8"/><circle cx="7" cy="10.6" r=".8"/><circle cx="11" cy="10.6" r=".8"/><circle cx="15" cy="10.6" r=".8"/><circle cx="19" cy="10.6" r=".8"/><circle cx="23" cy="10.6" r=".8"/>
    <circle cx="5" cy="14.4" r=".8"/><circle cx="9" cy="14.4" r=".8"/><circle cx="13" cy="14.4" r=".8"/><circle cx="17" cy="14.4" r=".8"/><circle cx="21" cy="14.4" r=".8"/>
    <circle cx="3" cy="18.2" r=".8"/><circle cx="7" cy="18.2" r=".8"/><circle cx="11" cy="18.2" r=".8"/><circle cx="15" cy="18.2" r=".8"/><circle cx="19" cy="18.2" r=".8"/><circle cx="23" cy="18.2" r=".8"/>
  </g>
</svg>
